<?xml version="1.0" encoding="UTF-8"?>
<svg id="Layer_2" data-name="Layer 2" xmlns="http://www.w3.org/2000/svg" width="373.98" height="60.3" viewBox="0 0 373.98 60.3">
  <defs>
    <style>
      .cls-1 {
        fill: #fff;
      }
    </style>
  </defs>
  <g id="Layer_1-2" data-name="Layer 1">
    <path class="cls-1" d="M61.91,54.53V7.16h21.84c4.71,0,8.35,1.38,10.92,4.15,2.57,2.77,3.86,6.48,3.86,11.14s-1.29,8.37-3.86,11.14c-2.57,2.77-6.21,4.15-10.92,4.15h-13.61v16.79h-8.23ZM70.13,30.46h13.1c2.09,0,3.71-.54,4.88-1.62,1.17-1.08,1.75-2.63,1.75-4.65v-3.46c0-2.02-.58-3.57-1.75-4.65-1.17-1.08-2.79-1.62-4.88-1.62h-13.1v16.02ZM151.77,54.53c-2.09,0-3.69-.59-4.8-1.78-1.12-1.19-1.8-2.7-2.04-4.55h-.36c-.73,2.38-2.06,4.18-4,5.39-1.94,1.21-4.3,1.82-7.06,1.82-3.93,0-6.95-1.02-9.06-3.06-2.11-2.04-3.17-4.78-3.17-8.23,0-3.79,1.37-6.63,4.11-8.52,2.74-1.89,6.76-2.84,12.05-2.84h6.84v-3.2c0-2.33-.63-4.12-1.89-5.39-1.26-1.26-3.23-1.89-5.9-1.89-2.23,0-4.05.49-5.46,1.46-1.41.97-2.6,2.21-3.57,3.71l-4.73-4.3c1.26-2.14,3.03-3.9,5.31-5.28,2.28-1.38,5.27-2.08,8.96-2.08,4.9,0,8.66,1.14,11.28,3.42,2.62,2.28,3.93,5.56,3.93,9.83v19h4v6.48h-4.44ZM135.76,49.36c2.48,0,4.51-.55,6.12-1.64,1.6-1.09,2.4-2.56,2.4-4.4v-5.46h-6.7c-5.49,0-8.23,1.7-8.23,5.1v1.31c0,1.7.57,2.97,1.71,3.82,1.14.85,2.7,1.27,4.7,1.27ZM182.25,54.53v-6.41l20.31-24.97h-19.66v-6.58l29.05.1v6.12l-20.6,25.26h21.11v6.48h-30.21ZM111.35,54.53h5.1v-6.48h-5.24V7.2h-7.94v42.62c0,2.61,2.11,4.72,4.72,4.72h3.36ZM220.64,2.48c-2.61,0-4.72,2.11-4.72,4.72s2.11,4.72,4.72,4.72,4.72-2.11,4.72-4.72-2.11-4.72-4.72-4.72ZM156.91,16.57h-.7v6.58h6.07v23.15c0,2.62.7,4.65,2.11,6.08,1.41,1.43,3.49,2.15,6.26,2.15h6.92v-6.48h-7.35v-24.9h7.94v-6.58h-7.94V7.16h-7.14v3.3s0,1.41,0,1.41c0,2.6-2.1,4.71-4.7,4.71h-1.48ZM216.67,16.67h7.94v37.86h-7.94V16.67ZM22.88,3.92L2.78,24.02c-3.7,3.7-3.7,9.7,0,13.4l20.1,20.1c3.7,3.7,9.7,3.7,13.4,0l6.7-6.7-6.7-6.7-6.7,6.7L9.48,30.72,29.58,10.62l13.4,13.4-13.4,13.4,6.7,6.7,13.4-13.4c3.7-3.7,3.7-9.7,0-13.4l-13.4-13.4c-3.7-3.7-9.7-3.7-13.4,0ZM283.56,54.53h-27.12V3.09h4.42v47.53h22.7v3.91ZM294.24,6.04c-.98,0-1.71-.25-2.17-.74-.47-.49-.7-1.13-.7-1.92v-.74c0-.79.23-1.42.7-1.92s1.19-.74,2.17-.74c1.03,0,1.77.25,2.21.74.44.49.66,1.13.66,1.92v.74c0,.79-.22,1.43-.66,1.92-.44.49-1.18.74-2.21.74ZM292.18,54.53V16.8h4.2v37.73h-4.2ZM323.2,54.53h-4.94l-13.48-37.73h4.2l7.44,20.63,4.28,12.6h.29l4.28-12.6,7.52-20.63h4.05l-13.63,37.73ZM358.13,55.41c-3.34,0-6.25-.79-8.73-2.36-2.48-1.57-4.4-3.83-5.75-6.78-1.35-2.95-2.03-6.49-2.03-10.61s.67-7.66,2.03-10.61c1.35-2.95,3.25-5.21,5.71-6.78s5.35-2.36,8.7-2.36,6.04.77,8.4,2.32c2.36,1.55,4.2,3.72,5.53,6.52,1.33,2.8,1.99,6.04,1.99,9.73v1.99h-27.93v1.84c0,3.98,1.08,7.21,3.24,9.69,2.16,2.48,5.18,3.72,9.06,3.72,2.7,0,5.02-.65,6.96-1.95,1.94-1.3,3.43-3.18,4.46-5.64l3.1,2.06c-1.18,2.75-3.04,4.97-5.56,6.67-2.53,1.7-5.59,2.54-9.17,2.54ZM358.06,19.45c-2.46,0-4.58.57-6.37,1.69-1.79,1.13-3.18,2.7-4.16,4.72-.98,2.01-1.47,4.35-1.47,7v.37h23.36v-.59c0-2.65-.47-4.96-1.4-6.93-.93-1.96-2.26-3.5-3.98-4.61s-3.71-1.66-5.97-1.66Z"/>
  </g>
</svg>